<?xml version="1.0" encoding="utf-8"?>
<!-- Generator: Adobe Illustrator 27.5.0, SVG Export Plug-In . SVG Version: 6.00 Build 0)  -->
<svg version="1.1" id="BACKGROUND" xmlns="http://www.w3.org/2000/svg" xmlns:xlink="http://www.w3.org/1999/xlink" x="0px" y="0px"
	 viewBox="0 0 750 500" style="enable-background:new 0 0 750 500;" xml:space="preserve">
<g>
	<defs>
		<rect id="SVGID_1_" width="750" height="500"/>
	</defs>
	<clipPath id="SVGID_00000008849039697727825870000017701462766971401614_">
		<use xlink:href="#SVGID_1_"  style="overflow:visible;"/>
	</clipPath>
	
		<rect style="clip-path:url(#SVGID_00000008849039697727825870000017701462766971401614_);fill:#FFFFFF;" width="750" height="500"/>
	<g style="clip-path:url(#SVGID_00000008849039697727825870000017701462766971401614_);">
		<path style="fill:#FFF5F2;" d="M40.763,385.181c33.334-69.879,46.506-163.921,131.33-172.025
			c13.95-1.333,28.802,2.276,39.021,11.865c25.853,24.258,0.839,60.077-9.876,84.986c-3.681,8.556-7.389,18.294-3.788,26.884
			c3.645,8.693,13.398,12.872,22.364,15.782c21.819,7.083,44.449,11.662,67.304,13.619c18.726,1.604,37.698,1.468,56.062,5.468
			c18.364,4,36.598,12.814,47.129,28.382c18.239,26.964,7.028,61.281,15.098,91.057c7.295,26.917,28.155,48.94,32.859,76.592
			c5.062,29.757-12.968,57.255-38.945,70.674c-12.192,6.298-25.992,9.792-39.683,8.85c-27.526-1.894-49.153-20.888-73.827-31.049
			c-27.85-11.469-57.658-19.073-87.94-18.579c-50.243,0.82-100.939,16.621-150.807,3.586
			C-25.496,582.306-67.306,493.776,0.052,440.849C17.6,427.061,30.194,407.335,40.763,385.181z"/>
		<path style="fill:#FFF5F2;" d="M169.822,43.974c7.847,9.563,19.658,16.207,36.152,17.873c15.567,1.572,31.001-3.292,46.595-4.58
			c50.484-4.171,61.127,56.628,73.015,93.933c20.998,65.895,61.955,106.966,134.782,96.233
			c23.607-3.479,42.843-14.963,38.825-42.081c-2.186-14.752-10.096-27.96-14.765-42.124c-4.295-13.028-6.301-35.561,7.651-43.749
			c8.619-5.058,19.439-1.572,29.163,0.737c15.729,3.735,37.081,7.503,51.047-3.171c10.163-7.767,13.214-21.447,16.427-33.828
			c9.237-35.596,39.338-39.704,70.566-46.734c22.798-5.135,40.224-20.22,37.929-45.404c-1.988-21.813-16.42-48.951-31.418-64.852
			c-10.191-10.804-24.775-18.522-39.53-16.822c-11.55,1.33-21.625,8.072-31.975,13.37c-51.787,26.509-114.697,17.761-169.838-0.786
			c-25.132-8.453-49.887-18.855-76.15-22.501c-43.809-6.081-87.753,7.067-130.03,20.064c-10.46,3.216-21.224,6.593-29.625,13.612
			C158.954-42.031,145.778,14.672,169.822,43.974z"/>
		<path style="fill:#FFF5F2;" d="M485.931,436.667c-2.893-5.587-5.512-11.131-7.842-16.544c-3.143-7.301-5.646-15.232-4.526-23.102
			c3.012-21.165,23.645-22.493,40.46-23.51c7.738-0.468,15.893-1.982,21.646-7.18c11.79-10.654,7.056-27.856,3.753-41.126
			c-3.97-15.948-6.286-32.577-3.858-48.832c3.947-26.421,20.938-48.806,42.966-63.2c17.539-11.461,55.116-28.074,74.814-13.932
			c23.619,16.958,9.371,62.893,7.294,86.571c-0.738,8.418-1.321,17.524,3.185,24.672c4.669,7.406,13.715,10.818,22.37,12.142
			c39.413,6.031,77.565-16.965,117.036-17.764c59.731-1.208,123.938,57.734,81.266,116.206
			c-7.105,9.735-16.881,17.937-20.774,29.343c-1.903,5.577-2.247,11.547-3.375,17.332c-13.623,69.856-100.701,73.313-157.169,71.33
			c-74.966-2.632-150.082-4.72-198.124-71.034C497.863,458.115,491.564,447.545,485.931,436.667z"/>
		<path style="fill:#FFF5F2;" d="M14.103,299.178c7.003-19.284,8.151-40.607,17.48-58.88c10.263-20.102,29.712-34.489,50.943-42.147
			c22.608-8.154,47.243-9.352,69.911-17.335s44.719-26.052,45.867-50.058c1.029-21.507-15.252-40.43-33.97-51.07
			c-18.718-10.641-40.165-15.336-59.982-23.756c-7.823-3.324-15.554-7.347-21.419-13.498C53.971,12.063,86.271-46.324,57.796-77.152
			c-9.885-10.701-25.457-15.036-39.93-13.377c-14.473,1.658-27.897,8.717-39.294,17.791C-54.356-46.518-71.512-1.852-64.601,39.669
			c4.407,26.478,17.764,51.513,17.366,78.352c-0.46,31.056-19.056,58.441-35.373,84.869c-16.317,26.427-31.501,57.142-24.331,87.362
			C-93.063,348.742-6.709,356.489,14.103,299.178z"/>
		<path style="fill:#FFF5F2;" d="M713.74,78.867c-13.37,10.06-29.794,15.215-43.859,24.278
			c-14.065,9.063-26.364,24.562-23.588,41.062c3.49,20.745,27.746,30.55,48.688,32.546c20.942,1.996,43.974,0.638,60.675,13.43
			c11.782,9.025,17.927,23.406,27.019,35.136c9.092,11.731,24.721,21.43,38.265,15.361c12.409-5.56,16.277-20.975,18.641-34.365
			c3.892-22.043,7.684-45.35-0.19-66.303c-7.133-18.982-23.45-34.768-24.864-54.996c-1.009-14.431,5.887-28.108,8.755-42.286
			c5.599-27.677-29.379-115.784-67.565-82.167c-13.064,11.501-12.465,38.875-13.807,54.496
			C739.791,39.717,734.739,63.067,713.74,78.867z"/>
	</g>
	<g style="clip-path:url(#SVGID_00000008849039697727825870000017701462766971401614_);">
		<g>
			<path style="fill:none;stroke:#826A62;stroke-width:1.5;stroke-linecap:round;stroke-linejoin:round;stroke-miterlimit:10;" d="
				M417.662-5.972c-12.326,15.155-26.11,32.304-20.911,52.617c1.835,7.171,8.168,18.801-0.821,23.678
				c-7.878,4.275-26.076-2.847-34.285-3.485c-19.6-1.524-46.543,2.306-65.236,8.593c-10.492,3.529-15.075,11.098-23.682,17.026
				c-9.01,6.206-20.736,7.065-31.206,8.775c-22.21,3.627-37.617-12.354-59.816-12.346c-7.066,0.002-44.946,9.354-41.248,20.832
				c2.525,7.837,13.393,2.891,15.645,11.181c3.337,12.286-10.752,10.836-17.351,10.32c-7.14-0.558-18.546-0.159-23.285,6.771
				c-7.48,10.94,4.746,15.48,13.281,19.07c17.834,7.501,27.27,24.209,40.768,37.736c13.799,13.828,35.499,19.279,54.643,14.288
				c9.407-2.453,17.794-7.865,26.768-11.421c9.016-3.573,17.649-4.284,27.096-6.04c9.597-1.784,18.508-5.727,28.109-7.645
				c8.493-1.697,27.951-8.149,35.342-4.091c12.953,7.113-6.465,33.115-11.012,41.068c-8.018,14.023-19.956,35.547-9.579,52.258
				c10.332,16.64,35.033,4.993,44.142-5.311c12.741-14.412,33.397-20.197,45.345-35.799c7.513-9.811,6.627-19.667,6.647-31.451
				c0.021-12.184,2.299-24.358,2.018-36.491c-0.438-18.936-14.527-46.977-3.867-63.657c5.987-9.368,15.299-17.004,21.431-26.648
				c5.232-8.229,16.141-17.362,19.888-25.674c4.257-9.445-3.046-15.597-7.457-23.325c-6.369-11.157-2.39-19.673,1.014-31.344"/>
			<path style="fill:none;stroke:#826A62;stroke-width:1.5;stroke-linecap:round;stroke-linejoin:round;stroke-miterlimit:10;" d="
				M-9.987,309.624c11.057,3.236,25.142,10.042,36.567,8.699c13.002-1.529,22.621-9.218,36.408-8.608
				c11.953,0.529,27.098,0.982,37.213,7.909c10.314,7.062,10.645,16.931,15.927,27.176c5.281,10.244,16.281,14.896,23.203,24.015
				c6.425,8.464,10.214,19.098,16.909,27.262c7.827,9.544,18.212,9.304,29.5,10.8c14.309,1.896,27.92,6.829,42.57,5.762
				c14.061-1.024,28.04-3.292,42.178-4.37c10.534-0.803,21.038-4.609,17.099-17.33c-6.629-21.412-49.438-24.632-66.357-29.126
				c-12.619-3.352-15.948-15.516-21.37-26.016c-6.778-13.126-13.651-26.02-19.718-39.511c-5.354-11.906-12.043-23.232-17.299-35.095
				c-4.24-9.572-4.391-23.519-11.946-31.21c-18.172-18.499-56.383-7.033-76.381,0.021c-13.596,4.796-23.761,7.685-37.684,3.392
				c-16.132-4.973-29.988-9.962-46.819-12.177"/>
			<path style="fill:none;stroke:#826A62;stroke-width:1.5;stroke-linecap:round;stroke-linejoin:round;stroke-miterlimit:10;" d="
				M759.473,363.594c-20.628-21.169-53.771-17.548-68.769-43.396c-7.645-13.177-9.523-25.74-8.267-40.762
				c1.244-14.885,5.552-26.728-1.95-40.615c-6.312-11.684-14.789-25.954-23.762-35.789c-14.108-15.465-23.042-10.652-40.448-5.691
				c-10.625,3.029-25.999-0.315-34.255,8.639c-8.426,9.139-4.193,24.955,4.703,32.248c10.099,8.28,25.341,3.079,28.617,18.602
				c2.439,11.554-4.279,26.793-9.608,36.609c-7.14,13.153-17.564,22.923-11.235,38.627c4.298,10.666,12.888,19.179,17.677,29.786
				c6.66,14.753,7.499,19.048,22.957,24.645c13.376,4.844,21.133,13.427,32.031,22.036c26.166,20.668,60.578,26.26,92.822,30.618"/>
			<path style="fill:none;stroke:#826A62;stroke-width:1.5;stroke-linecap:round;stroke-linejoin:round;stroke-miterlimit:10;" d="
				M556.442-5.972c4.598,13.282,6.952,28.441,12.922,41.096c4.519,9.579,14.278,10.423,19.483,18.287
				c8.662,13.083-24.758,32.667-33.324,43.454c-15.645,19.699-10.18,38.91,13.82,46.676c25.181,8.148,40.809,1.748,56.237-19.347
				c11.139-15.231,18.191-45.682,7.775-63.183c-8.36-14.046-27.403-10.874-17.119-32.867c4.238-9.065,16.14-16.741,26.565-15.533
				c8.262,0.958,10.647,7.268,17.352,11.206c19.734,11.592,42.726-10.735,27.873-29.789"/>
			<path style="fill:none;stroke:#826A62;stroke-width:1.5;stroke-linecap:round;stroke-linejoin:round;stroke-miterlimit:10;" d="
				M343.646,505.972c-6.482-19.445-19.631-32.911-40.924-37.429c-8.962-1.902-18.01,1.518-27.026,0.197
				c-11.335-1.662-16.099-8.111-25.689-13.19c-17.616-9.329-33.291,5.893-47.475,15.215c-14.481,9.517-37.681,19.18-45.469,35.722"
				/>
			<path style="fill:none;stroke:#826A62;stroke-width:1.5;stroke-linecap:round;stroke-linejoin:round;stroke-miterlimit:10;" d="
				M722.979,506.229c-11.57,1.577-12.775-29.511-20.839-36.149c-6.716-5.528-17.008-7.1-24.587-11.564
				c-7.71-4.542-15.708-14.841-24.708-16.456c-16.513-2.964-27.176,27.289-38.918,36.065c-6.12,4.574-14.314,4.938-19.939,10.149
				c-5.573,5.162-5.492,10.978-7.733,17.698"/>
			<path style="fill:none;stroke:#826A62;stroke-width:1.5;stroke-linecap:round;stroke-linejoin:round;stroke-miterlimit:10;" d="
				M-9.987,478.216c13.969,1.94,28.073,6.724,39.571-3.605c13.167-11.829,21.349-30.352,23.739-47.67
				c3.596-26.065-39.936-54.162-63.309-54.609"/>
			<path style="fill:none;stroke:#826A62;stroke-width:1.5;stroke-linecap:round;stroke-linejoin:round;stroke-miterlimit:10;" d="
				M-9.987,174.956c16.136,1.654,25.181-6.334,37.006-15.58c7.627-5.964,18.273-10.745,19.963-21.382
				c1.461-9.196-7.55-26.364-13.69-33.086C21.519,92.017,5.249,96.825-9.987,98.884"/>
			<path style="fill:none;stroke:#826A62;stroke-width:1.5;stroke-linecap:round;stroke-linejoin:round;stroke-miterlimit:10;" d="
				M121.084-6.486c-5.899,13.62-20.475,21.313-32.111,29.318c-9.865,6.787-20.214,18.562-31.034,22.914
				c-11.724,4.715-25.387,0.115-37.381,5.046C8.085,55.919,2.891,69.679-9.473,75.754"/>
			<path style="fill:none;stroke:#826A62;stroke-width:1.5;stroke-linecap:round;stroke-linejoin:round;stroke-miterlimit:10;" d="
				M759.987,205.796c-9.288,3.177-23.065,4.952-27.72,14.837c-4.289,9.11-0.456,23.514-0.617,33.083
				c-0.162,9.598-4.394,22.08-0.172,31.239c4.676,10.144,19.212,16.314,27.995,22.099"/>
			<path style="fill:none;stroke:#826A62;stroke-width:1.5;stroke-linecap:round;stroke-linejoin:round;stroke-miterlimit:10;" d="
				M245.986-5.972c-4.658,9.98-8.251,32.753,7.708,32.99c22.969,0.341,18.254-19.926,13.366-33.504"/>
			<path style="fill:none;stroke:#826A62;stroke-width:1.5;stroke-linecap:round;stroke-linejoin:round;stroke-miterlimit:10;" d="
				M717.053,95.656c-5.385,1.15-10.093,4.808-14.606,7.735c-6.219,4.035-11.22,9.023-12.831,16.475
				c-1.626,7.524-0.406,15.343,0.369,22.893c1.555,15.151,7.269,43.844,28.715,39.635c20.642-4.051,13.895-36.07,14.569-50.872
				c0.446-9.799,3.239-22.869-3.213-31.354c-2.546-3.348-6.795-5.182-10.987-4.817C718.387,95.411,717.715,95.514,717.053,95.656z"
				/>
			<path style="fill:none;stroke:#826A62;stroke-width:1.5;stroke-linecap:round;stroke-linejoin:round;stroke-miterlimit:10;" d="
				M284.033,217.117c-6.071-0.597-12.97,1.783-18.553,2.528c-13.165,1.756-26.362,3.39-39.451,5.662
				c-12.988,2.254-32.69-1.247-35.936,15.371c-2.766,14.16,9.853,34.186,15.679,46.291c6.887,14.308,16.321,39.236,31.059,46.678
				c7.128,3.599,15.987,4.426,23.501,7.332c8.481,3.28,16.612,7.769,25.704,9.132c5.971,0.895,19.556,0.792,24.65-4.139
				c7.536-7.295,0.853-15.687-2.41-23.813c-6.695-16.672-9.085-35.161-11.03-52.961c-1.206-11.039,1.508-22.253,0.405-33.367
				c-0.501-5.046-1.506-10.86-5.112-14.712C290.129,218.544,287.193,217.427,284.033,217.117z"/>
			<path style="fill:none;stroke:#826A62;stroke-width:1.5;stroke-linecap:round;stroke-linejoin:round;stroke-miterlimit:10;" d="
				M495.276-6.486c-3.969,14.881,6.907,26.225,9.163,40.102c2.047,12.595,2.35,26.924-3.494,38.483
				c-5.609,11.091-14.826,19.9-20.529,31.053c-7.727,15.114-13.246,18.002-26.206,28.926c-9.741,8.211-14.507,16.776-10.614,29.459
				c4.396,14.324,12.921,15.378,23.752,22.495c25.766,16.932-24.836,41.264,8.263,57.017c13.948,6.638,15.622-8.902,24.994-16.067
				c8.013-6.126,20.951-7.106,30.649-5.873c13.14,1.671,14.036,8.573,17.203,20.358c3.288,12.234,12.098,19.01,16.184,30.451
				c4.769,13.353-0.638,16.265-7.408,26.043c-9.353,13.509-8.058,24.093,1.835,36.008c9.059,10.911,19.44,20.02,29.177,30.164
				c10.42,10.855,9.15,26.151,18.06,37.556c8.623,11.037,25.742,6.938,37.961,12.643c13.808,6.446,23.703,17.727,36.426,25.623
				c11.488,7.13,24.658,5.984,37.111,10.207c15.46,5.243,27.446,16.965,42.184,22.86"/>
			<path style="fill:none;stroke:#826A62;stroke-width:1.5;stroke-linecap:round;stroke-linejoin:round;stroke-miterlimit:10;" d="
				M502.691,320.615c-4.109,0.787-7.733,2.858-10.359,7.552c-4.016,7.178-6.748,17.854-4.209,25.962
				c3.331,10.639,21.399,28.113,33.59,24.198c11.508-3.695,15.467-28.666,18.371-38.719c2.303-7.973,3.846-10.585-3.685-14.582
				c-5.912-3.138-13.256-3.58-19.792-4.2C511.829,320.374,506.994,319.791,502.691,320.615z"/>
		</g>
		<g>
			<path style="fill:none;stroke:#E26B43;stroke-width:1.5;stroke-linecap:round;stroke-linejoin:round;stroke-miterlimit:10;" d="
				M467.52-6.486c-0.985,7.14-3.401,15.7-2.139,22.668c1.402,7.739,7.295,14.074,9.76,21.426
				c6.287,18.752-7.052,24.244-19.262,34.694c-10.293,8.809-22.841,23.284-27.133,36.444c-6.17,18.919-2.847,42.306-1.714,61.716
				c0.965,16.524,6.831,37.4,2.752,53.552c-3.263,12.919-25.144,22.953-22.699,35.73c2.751,14.376,21.662,12.825,16.944,32.584
				c-4.15,17.383-11.432,22.717,6.533,34.391c12.928,8.401,22.003,12.374,29.211,26.609c6.283,12.409,25.364,25.325,26.367,39.473
				c1.206,17.01-19.646,19.915-31.451,24.517c-18.132,7.07-32.362,14.918-47.837,26.44c-10.168,7.57-20.348,17.586-28.658,4.608
				c-9.668-15.1-17.307-28.531-32.632-39.376c-14.762-10.447-26.987-8.145-32.523,9.5c-4.091,13.039-7.835,28.607-25.605,23.042
				c-7.657-2.398-13.123-9.34-20.691-12.078c-8.259-2.988-14.859-1.549-23.198,0.461c-15.847,3.821-41.758,3.351-54.674,13.915
				c-6.773,5.539-10.618,13.901-17.884,19.346c-7.69,5.762-15.779,11.635-23.729,17.081c-11.115,7.614-35.958,9.929-36.455,26.232"
				/>
			<path style="fill:none;stroke:#E26B43;stroke-width:1.5;stroke-linecap:round;stroke-linejoin:round;stroke-miterlimit:10;" d="
				M-9.987,301.4c18.622,3.386,31.571,6.972,48.967-1.997c19.461-10.033,25.694-4.331,45.343,1.422
				c12.121,3.549,23.482,3.025,33.48,11.924c6.735,5.995,11.035,20.372,20.184,16.372c6.519-2.85,17.629-22.137,26.248-6.727
				c5.38,9.619-10.021,28.226-9.35,39.546c0.641,10.823,7.248,19.138,16.725,23.76c9.23,4.502,35.243,16.717,42.507,4.622
				c6.443-10.726-12.343-26.799-17.903-35.01c-7.529-11.119-16.471-23.339-21.712-35.695c-6.532-15.401-10.234-32.251-16.649-47.876
				c-4.66-11.349-8.313-28.341-17.828-36.646c-24.099-21.035-53.65,0.303-73.355,14.459c-13.66,9.814-21.733,2.441-34.142-5.226
				c-13.375-8.264-27.106-11.76-42.515-13.861"/>
			<path style="fill:none;stroke:#E26B43;stroke-width:1.5;stroke-linecap:round;stroke-linejoin:round;stroke-miterlimit:10;" d="
				M528.686-5.972c4.896,10.608,15.959,19.359,18.42,30.844c3.161,14.75-8.602,21.174-13.868,32.7
				c-4.924,10.779,1.404,22.421-2.718,33.32c-4.201,11.109-14.873,14.397-23.068,21.678c-11.974,10.637-6.504,18.32,5.835,23.763
				c13.803,6.089,23.405,13.071,35.059,22.451c12.829,10.326,20.704,16.048,37.372,14.034c15.253-1.844,26.017,0.927,38.987-8.485
				c4.895-3.552,10.802-7.563,15.032-11.956c3.824-3.972,6.859-14.56,11.161-17.055c13.971-8.101,9.815,14.078,10.18,19.504
				c0.79,11.747,8.467,26.172,12.655,37.053c4.743,12.322,11.533,21.837,20.403,31.463c22.779,24.719,0.828,43.578,2.629,71.293
				c2.058,31.677,40.764,35.479,63.221,45.831"/>
			<path style="fill:none;stroke:#E26B43;stroke-width:1.5;stroke-linecap:round;stroke-linejoin:round;stroke-miterlimit:10;" d="
				M759.73,389.294c-3.792-11.515-9.078-22.652-19.144-29.991c-10.148-7.398-22.432-7.891-33.812-12.055
				c-23.999-8.781-31.519-29.839-32.594-53.56c-1.301-28.683-0.169-49.151-17.735-73.224c-5.222-7.156-12.049-15.12-21.972-12.907
				c-10.372,2.314-14.029,11.247-10.943,19.997c5.638,15.983,9.006,20.678,3.254,37.838c-4.509,13.452-10.152,26.545-14.124,40.176
				c-6.457,22.157,3.566,52.332,23.975,64.677c10.476,6.337,16.611,10.483,24.63,20.478c7.602,9.474,16.47,17.182,27.358,22.682
				c18.3,9.245,51.443,19.642,71.365,12.381"/>
			<path style="fill:none;stroke:#E26B43;stroke-width:1.5;stroke-linecap:round;stroke-linejoin:round;stroke-miterlimit:10;" d="
				M-9.987,184.208c15.708-0.962,29.491,0.176,42.072-10.364c10.682-8.949,25.721-21.206,26.301-36.177
				c0.583-15.067-12.316-28.834-11.284-43.381c1.228-17.302,12.141-11.901,21.689-6.978c10.935,5.638,26.77-3.118,15.926-15.086
				c-5.436-5.999-12.957-3.771-19.666-3.687c-8.202,0.104-11.657-1.579-19.08-5.006c-13.408-6.191-20.707-7.028-27.966,6.106
				C10.961,82.379,4.895,85.716-9.987,87.576"/>
			<path style="fill:none;stroke:#E26B43;stroke-width:1.5;stroke-linecap:round;stroke-linejoin:round;stroke-miterlimit:10;" d="
				M146.784-6.486c-1.443,11.771,10.598,22.646,16.653,31.745c6.854,10.3,13.204,17.592,26.784,15.248
				c12.744-2.2,22.587-14.042,35.691-13.768c14.086,0.294,11.096,13.088,21.578,19.367c12.121,7.26,19.518-4.185,29.65-9.633
				c12.928-6.952,26.148,2.262,40.281,1.665c26.387-1.115,55.071-12.415,52.44-44.623"/>
			<path style="fill:none;stroke:#E26B43;stroke-width:1.5;stroke-linecap:round;stroke-linejoin:round;stroke-miterlimit:10;" d="
				M539.994,505.972c12.806-9.961,19.558-15.785,26.226-30.322c6.087-13.27,10.948-11.003,23.633-14.295
				c11.471-2.977,16.823-14.215,7.221-22.756c-11.004-9.787-26.184-2.381-38.416-5.611c-12.819-3.385-14.872-23.1-30.592-19.853
				c-14.417,2.978-12.104,16.217-3.674,24.612c3.858,3.842,12.283,7.166,13.129,13.329c0.742,5.398-7.949,13.082-10.026,17.857
				c-3.066,7.049-3.018,14.666-6.959,21.371c-3.386,5.759-8.894,10.807-12.925,16.181"/>
			<path style="fill:none;stroke:#E26B43;stroke-width:1.5;stroke-linecap:round;stroke-linejoin:round;stroke-miterlimit:10;" d="
				M-9.987,469.992c13.016,1.627,23.241,4.693,33.149-5.556c8.374-8.662,9.569-20.084,9.644-31.473
				c0.156-23.573-18.463-46.282-42.793-49.324"/>
			<path style="fill:none;stroke:#E26B43;stroke-width:1.5;stroke-linecap:round;stroke-linejoin:round;stroke-miterlimit:10;" d="
				M-7.417-6.486c5.35,19.794,9.618,34.378,33.224,31.942C45.491,23.425,56.607,7.732,69.17-5.972"/>
			<path style="fill:none;stroke:#E26B43;stroke-width:1.5;stroke-linecap:round;stroke-linejoin:round;stroke-miterlimit:10;" d="
				M242.388,506.486c2.339-10.527,5.275-19.732-1.536-29.358c-7.204-10.182-12.713-4.689-22.053,0.184
				c-14.37,7.496-24.091,12.734-16.503,29.175"/>
			<path style="fill:none;stroke:#E26B43;stroke-width:1.5;stroke-linecap:round;stroke-linejoin:round;stroke-miterlimit:10;" d="
				M292.302,201.278c-10.946-0.36-24.487,5.656-32.93,7.982c-16.36,4.506-33.285,8.98-50.396,8.465
				c-9.055-0.273-25.242-3.103-30.444,6.475c-3.964,7.297-0.93,24.147,1.613,32.048c7.902,24.557,24.869,51.593,39.522,72.588
				c15.523,22.241,49.909,25.868,73.604,36.308c11.979,5.278,20.651,9.363,30.816-1.569c6.811-7.325,10.011-17.209,19.322-22.097
				c9.322-4.894,20.9-6.089,21.8-19.391c0.889-13.142-13.121-19.969-24.591-18.327c-11.103,1.589-15.442,10.877-23.512-0.354
				c-6.907-9.612-10.485-30.8-11.032-42.815c-0.615-13.51,4.591-26.677,3.703-40.23c-0.391-5.975-2.136-11.999-7.078-15.786
				C299.801,202.352,296.218,201.407,292.302,201.278z"/>
			<path style="fill:none;stroke:#E26B43;stroke-width:1.5;stroke-linecap:round;stroke-linejoin:round;stroke-miterlimit:10;" d="
				M335.441,92.938c-3.072,0.285-6.063,0.811-9.132,1.347c-5.577,0.975-11.151,2.022-16.625,3.483
				c-10.164,2.713-19.777,7.061-27.909,13.821c-11.465,9.532-35.268,15.147-36.973,32.499c-0.811,8.262,2.48,13.943,10.721,14.552
				c4.939,0.365,10.043-2.36,15.178-2.292c5.056,0.067,9.447,1.759,14.353,2.141c11.724,0.915,23.755,0.385,35.517,0.583
				c9.634,0.162,22.5-2.087,31.62,0.986c14.532,4.896,15.613,37.695,30.688,37.557c9.495-0.087,19.979-33.869,17.621-42.381
				c-2.22-8.014-10.654-10.826-15.595-16.786c-5.835-7.039-6.472-15.056-8.554-23.552c-1.753-7.153-4.602-15.083-11.348-18.96
				c-4.716-2.711-10.313-3.174-15.641-3.256c-3.895-0.06-7.793-0.094-11.685,0.099C336.926,92.815,336.182,92.87,335.441,92.938z"/>
			<path style="fill:none;stroke:#E26B43;stroke-width:1.5;stroke-linecap:round;stroke-linejoin:round;stroke-miterlimit:10;" d="
				M243.033,262.865c-3.656,0.792-5.94,4.29-5.563,8.904c0.554,6.768,6.505,14.332,12.756,16.843
				c2.128,0.855,4.526,1.326,6.668,0.235c13.014-6.627-0.075-22.98-9.565-25.749C245.766,262.642,244.315,262.587,243.033,262.865z"
				/>
			<path style="fill:none;stroke:#E26B43;stroke-width:1.5;stroke-linecap:round;stroke-linejoin:round;stroke-miterlimit:10;" d="
				M646.392,506.486c-3.069-16.91-19.357-7.371-26.214-0.514"/>
		</g>
		<g>
			<path style="fill:none;stroke:#EAAFDE;stroke-width:1.5;stroke-linecap:round;stroke-linejoin:round;stroke-miterlimit:10;" d="
				M400.7-6.486c-7.08,14.161-14.79,28.162-20.922,42.768c-5.565,13.256-8.652,14.208-22.912,15.819
				c-16.957,1.916-32.62,8.497-49.403,10.369c-14.692,1.639-22.297,4.003-33.657,13.858C264.174,84.683,253.08,92.02,239.6,90.81
				c-15.591-1.399-25.026-17.504-37.803-24.842c-14.153-8.129-27.812,0.133-42.215,5.017c-12.942,4.389-29.635,7.31-38.523,18.547
				c-7.137,9.024-7.327,19.001-18.693,24.502c-11.251,5.444-23.084,6.58-16.256,22.384c5.881,13.613,19.565,23.288,31.855,30.382
				c9.365,5.406,23.289,11.812,25.37,23.869c2.406,13.939-11.075,16.828-21.881,17.235c-17.811,0.671-30.991-0.591-48.54,3.838
				c-29.979,7.567-52.95-11.504-82.902-11.086"/>
			<path style="fill:none;stroke:#EAAFDE;stroke-width:1.5;stroke-linecap:round;stroke-linejoin:round;stroke-miterlimit:10;" d="
				M759.987,196.544c-12.248,3.499-27.929,4.88-34.498,17.323c-6.551,12.411-0.281,28.009-1.725,41.294
				c-1.422,13.082-11.21,29.327-3.639,41.823c7.323,12.086,27.733,16.572,39.862,21.892"/>
			<path style="fill:none;stroke:#EAAFDE;stroke-width:1.5;stroke-linecap:round;stroke-linejoin:round;stroke-miterlimit:10;" d="
				M759.473,82.95c-21.424,3.588-12.456,38.856-13.923,53.543c-1.278,12.795-3.783,25.089-2.666,38.07
				c1.092,12.698,4.237,13.757,17.103,13.757"/>
			<path style="fill:none;stroke:#EAAFDE;stroke-width:1.5;stroke-linecap:round;stroke-linejoin:round;stroke-miterlimit:10;" d="
				M91.785-5.972C76.572,6.198,59.434,23.719,41.116,30.749c-12.974,4.98-42.541,10.247-50.589-5.368"/>
			<path style="fill:none;stroke:#EAAFDE;stroke-width:1.5;stroke-linecap:round;stroke-linejoin:round;stroke-miterlimit:10;" d="
				M88.701,505.972c-5.1-5.95-11.841-17.741-19.341-20.624c-7.982-3.068-16.249,2.57-23.3,5.761
				c-19.844,8.981-34.953,6.561-56.047,4.583"/>
			<path style="fill:none;stroke:#EAAFDE;stroke-width:1.5;stroke-linecap:round;stroke-linejoin:round;stroke-miterlimit:10;" d="
				M-9.987,289.064c15.323,0.748,45.492,3.76,41.314-20.992c-2.935-17.385-25.533-26.918-41.314-25.268"/>
			<path style="fill:none;stroke:#EAAFDE;stroke-width:1.5;stroke-linecap:round;stroke-linejoin:round;stroke-miterlimit:10;" d="
				M-9.473,399.574c16.454,9.872,31.115,14.518,30.685,37.624C20.82,458.247,8.73,465.471-9.987,459.712"/>
			<path style="fill:none;stroke:#EAAFDE;stroke-width:1.5;stroke-linecap:round;stroke-linejoin:round;stroke-miterlimit:10;" d="
				M10.059-6.486c-3.93,12.189,1.674,21.725,14.663,20.288C38.164,12.314,37.815,4.97,37.815-6.486"/>
			<path style="fill:none;stroke:#EAAFDE;stroke-width:1.5;stroke-linecap:round;stroke-linejoin:round;stroke-miterlimit:10;" d="
				M759.987,232.524c-20.138,2.084-12.23,40.758-0.514,48.83"/>
			<path style="fill:none;stroke:#EAAFDE;stroke-width:1.5;stroke-linecap:round;stroke-linejoin:round;stroke-miterlimit:10;" d="
				M-9.987,421.676c18.96,4.337,25.761,28.635,0,24.672"/>
			<path style="fill:none;stroke:#EAAFDE;stroke-width:1.5;stroke-linecap:round;stroke-linejoin:round;stroke-miterlimit:10;" d="
				M753.305-6.486c0,6.76-1.203,14.057,6.168,17.476"/>
			<path style="fill:none;stroke:#EAAFDE;stroke-width:1.5;stroke-linecap:round;stroke-linejoin:round;stroke-miterlimit:10;" d="
				M759.987,501.86c-2.056,1.371-4.112,2.741-6.168,4.112"/>
			<path style="fill:none;stroke:#EAAFDE;stroke-width:1.5;stroke-linecap:round;stroke-linejoin:round;stroke-miterlimit:10;" d="
				M553.374,356.218c-2.547,0.158-4.895,1.116-6.659,3.33c-5.318,6.673-6.317,18.517-5.086,26.663
				c2.003,13.261,17.755,28.674,31.493,28.635c19.346-0.056,15.408-19.329,11.057-33.129c-2.676-8.488-9.312-16.017-16.686-20.808
				C563.841,358.537,558.242,355.916,553.374,356.218z"/>
			<path style="fill:none;stroke:#EAAFDE;stroke-width:1.5;stroke-linecap:round;stroke-linejoin:round;stroke-miterlimit:10;" d="
				M585.226,5.336c-11.24,3.829-8.326,23.251,3.476,21.92c9.803-1.106,8.759-23.442-2.962-21.92"/>
			<path style="fill:none;stroke:#EAAFDE;stroke-width:1.5;stroke-linecap:round;stroke-linejoin:round;stroke-miterlimit:10;" d="
				M243.93,381.584c-14.393,5.943,11.318,21.079,19.203,13.068c9.517-9.669-12.3-13.095-18.689-13.068"/>
			<path style="fill:none;stroke:#EAAFDE;stroke-width:1.5;stroke-linecap:round;stroke-linejoin:round;stroke-miterlimit:10;" d="
				M714.191,383.059c3.753,0.419,7.936,4.602,10.029,6.714c4.439,4.48,6.91,10.707-1.24,12.343
				c-5.34,1.072-11.032-2.294-13.727-6.814c-1.271-2.131-1.969-4.724-1.212-7.16c0.517-1.667,1.569-3.312,3.011-4.325
				C712.017,383.138,713.085,382.935,714.191,383.059z"/>
			<path style="fill:none;stroke:#EAAFDE;stroke-width:1.5;stroke-linecap:round;stroke-linejoin:round;stroke-miterlimit:10;" d="
				M93.841,451.488c-10.666,4.102-16.991,19.645-0.507,19.641c15.854-0.004,14.935-16.548,1.021-19.641"/>
			<path style="fill:none;stroke:#EAAFDE;stroke-width:1.5;stroke-linecap:round;stroke-linejoin:round;stroke-miterlimit:10;" d="
				M482.426,451.488c-7.843,2.451-18.437,9.283-3.168,12.468c10.99,2.292,17.361-12.468,3.682-12.468"/>
			<path style="fill:none;stroke:#EAAFDE;stroke-width:1.5;stroke-linecap:round;stroke-linejoin:round;stroke-miterlimit:10;" d="
				M420.746,472.048c-14.832,7.415,9.461,7.297,0.514,0"/>
			<path style="fill:none;stroke:#EAAFDE;stroke-width:1.5;stroke-linecap:round;stroke-linejoin:round;stroke-miterlimit:10;" d="
				M708.623,135.417c-5.345,0.048-4.02,13.306-3.633,16.246c0.613,4.663,2.68,11.648,8.618,11.072
				c0.046-0.004,0.093-0.009,0.139-0.014c12.282-1.43,1.437-19.123-1.971-24.252c-0.622-0.936-1.319-2.408-2.361-2.875
				C709.139,135.47,708.875,135.414,708.623,135.417z"/>
			<path style="fill:none;stroke:#EAAFDE;stroke-width:1.5;stroke-linecap:round;stroke-linejoin:round;stroke-miterlimit:10;" d="
				M514.345,165.819c-0.103,0.042-0.205,0.087-0.306,0.137c-2.363,1.163-3.733,4.863-4.361,7.214
				c-0.895,3.347-0.731,6.926,0.379,10.201c1.785,5.266,6.206,9.163,11.954,8.965c12.445-0.429,9.121-14.701,3.515-21.166
				C523.227,168.52,518.244,164.243,514.345,165.819z"/>
			<path style="fill:none;stroke:#EAAFDE;stroke-width:1.5;stroke-linecap:round;stroke-linejoin:round;stroke-miterlimit:10;" d="
				M214.34,171.506c-1.438,0.49-2.742,1.165-3.79,2.005c-9.298,7.455-7.292,20.699,6.125,18.874
				c4.984-0.678,13.15-6.999,13.853-12.305C231.711,171.158,221.412,169.095,214.34,171.506z"/>
			<path style="fill:none;stroke:#EAAFDE;stroke-width:1.5;stroke-linecap:round;stroke-linejoin:round;stroke-miterlimit:10;" d="
				M329.346,110.937c-0.738,0.089-1.477,0.209-2.214,0.358c-7.668,1.551-20.637,7.361-19.145,17.054
				c1.618,10.515,18.866,12.336,27.102,11.843c10.619-0.635,23.449-7.861,15.88-19.837
				C346.214,112.83,337.803,109.913,329.346,110.937z"/>
			<path style="fill:none;stroke:#EAAFDE;stroke-width:1.5;stroke-linecap:round;stroke-linejoin:round;stroke-miterlimit:10;" d="
				M335.436,101.541c-0.267,0.009-0.535,0.022-0.804,0.039c-4.996,0.322-9.664,1.911-14.438,3.272
				c-4.631,1.32-9.197,2.93-13.511,5.091c-7.625,3.82-14.091,9.501-18.128,17.084c-11.412,21.436,26.917,22.02,40.806,22.924
				c16.549,1.077,37.534,0.428,38.968-20.436c0.584-8.49-1.794-16.659-9.21-21.462C352.461,103.741,343.37,101.282,335.436,101.541z
				"/>
			<path style="fill:none;stroke:#EAAFDE;stroke-width:1.5;stroke-linecap:round;stroke-linejoin:round;stroke-miterlimit:10;" d="
				M603.744,87.745c-3.007,0.169-5.803,2.059-8.001,4.105c-5.084,4.733-8.302,12.403-7.231,19.372
				c0.05,0.327,0.11,0.652,0.181,0.975c1.733,7.882,9.343,9.762,16.414,8.105c11.272-2.642,14.315-16.4,8.796-25.52
				c-1.714-2.832-4.236-5.734-7.571-6.733C605.458,87.787,604.593,87.698,603.744,87.745z"/>
			<path style="fill:none;stroke:#EAAFDE;stroke-width:1.5;stroke-linecap:round;stroke-linejoin:round;stroke-miterlimit:10;" d="
				M520.51,235.88c-1.235,0.206-2.455,0.723-3.582,1.384c-12.623,7.413-17.556,25.031-18.147,38.704
				c-0.548,12.659,3.978,27.327,18.242,29.566c17.575,2.759,17.91-17.85,14.729-29.303c-1.835-6.606-0.88-14.145-1.181-20.925
				c-0.253-5.688-0.294-15.148-5.821-18.636C523.399,235.817,521.945,235.639,520.51,235.88z"/>
			<path style="fill:none;stroke:#EAAFDE;stroke-width:1.5;stroke-linecap:round;stroke-linejoin:round;stroke-miterlimit:10;" d="
				M239.818,245.888c-36.88,5.865-5.348,76.694,25.226,66.408c14.983-5.041,15.469-27.757,12.046-40.391
				c-6.11-22.549-14.982-26.017-36.757-26.017"/>
			<path style="fill:none;stroke:#EAAFDE;stroke-width:1.5;stroke-linecap:round;stroke-linejoin:round;stroke-miterlimit:10;" d="
				M113.551,248.616c-3.242,0.842-6.255,2.807-8.31,5.87c-6.668,9.942-0.939,20.719,11.235,19.814
				c8.847-0.658,16.448-7.737,13.405-17.047C127.428,249.744,120.034,246.933,113.551,248.616z"/>
			<path style="fill:none;stroke:#EAAFDE;stroke-width:1.5;stroke-linecap:round;stroke-linejoin:round;stroke-miterlimit:10;" d="
				M644.68,304.063c2.728,0.791,5.67,1.28,8.503,0.815c12.942-2.128,10.655-20.598,8.309-29.589
				c-1.509-5.781-3.77-11.916-7.571-16.615c-4.906-6.064-11.986,5.376-14.33,9.202C632.83,278.913,628.089,299.253,644.68,304.063z"
				/>
			<path style="fill:none;stroke:#EAAFDE;stroke-width:1.5;stroke-linecap:round;stroke-linejoin:round;stroke-miterlimit:10;" d="
				M471.669,276.567c-0.861,0.079-1.737,0.36-2.517,0.823c-4.222,2.5-20.639,13.045-8.716,16.452
				c4.697,1.374,10.393-3.948,12.971-7.235c1.371-1.748,2.946-4.143,2.723-6.487C475.875,277.439,473.818,276.371,471.669,276.567z"
				/>
			<path style="fill:none;stroke:#EAAFDE;stroke-width:1.5;stroke-linecap:round;stroke-linejoin:round;stroke-miterlimit:10;" d="
				M400.208,283.044c-5.367-0.319-12.557,4.84-14.208,8.72c-2.262,5.315,0.683,12.571,6.721,13.424
				c5.781,0.817,10.957-4.804,12.873-9.696c1.226-3.131,1.036-7.769-1.199-10.443C403.307,283.745,401.842,283.141,400.208,283.044z
				"/>
			<path style="fill:none;stroke:#EAAFDE;stroke-width:1.5;stroke-linecap:round;stroke-linejoin:round;stroke-miterlimit:10;" d="
				M661.295,331.039c1.042-6.176-3.442-10.359-9.166-11.588c-2.682-0.576-6.007-0.987-8.766-1.066
				c-2.9-0.084-5.755,0.74-7.607,3.098c-2.077,2.645-2.689,6.204-2.523,9.487c0.314,6.243,3.82,14.2,10.698,15.343
				C649.956,347.314,660.333,336.741,661.295,331.039z"/>
			<path style="fill:none;stroke:#EAAFDE;stroke-width:1.5;stroke-linecap:round;stroke-linejoin:round;stroke-miterlimit:10;" d="
				M384.986,329.16c-1.795,0.309-3.575,0.976-5.424,2.173c-3.935,2.547-6.996,6.263-10.561,9.276
				c-5.226,4.416-10.456,8.844-16.051,12.793c-8.801,6.212-20.703,18.936-14.751,30.924c2.695,5.427,11.006,8.452,15.642,12.086
				c6.256,4.905,9.99,10.253,14.951,16.302c12.526,15.274,21.851,21.736,40.453,13.713c16.501-7.117,34.46-13.874,49.867-23.151
				c16.55-9.965,9.782-17.647,0.748-31.418c-8.194-12.49-13.439-23.982-27.574-30.648c-8.122-3.83-16.73-6.541-25.435-8.691
				c-4.283-1.057-8.599-1.974-12.93-2.813C390.682,329.079,387.815,328.674,384.986,329.16z"/>
			<path style="fill:none;stroke:#EAAFDE;stroke-width:1.5;stroke-linecap:round;stroke-linejoin:round;stroke-miterlimit:10;" d="
				M511.394,340.899c-1.275,0.554-2.371,1.736-2.957,3.586c-1.457,4.601,0.706,11.239,6.624,8.996
				c3.445-1.307,4.64-5.357,3.453-8.649C517.204,341.203,513.943,339.792,511.394,340.899z"/>
			<path style="fill:none;stroke:#EAAFDE;stroke-width:1.5;stroke-linecap:round;stroke-linejoin:round;stroke-miterlimit:10;" d="
				M527.68,23.024c-1.598,0.146-2.754,2.045-3.601,3.458c-0.905,1.508-1.55,3.19-1.89,4.915c-0.539,2.733-0.381,6.536,2.632,7.761
				c1.015,0.413,2.157,0.428,3.228,0.281c7.662-1.054,6.874-12.194,1.591-15.708C529.057,23.343,528.406,22.958,527.68,23.024z"/>
		</g>
		<g>
			<path style="fill:none;stroke:#514E95;stroke-width:1.5;stroke-linecap:round;stroke-linejoin:round;stroke-miterlimit:10;" d="
				M479.856-6.486c1.294,18.616,10.456,33.636,12.362,51.532c2.075,19.484-7.357,27.895-22.415,37.613
				c-16.949,10.94-20.875,18.351-25.892,37.161c-2.015,7.557-6.762,13.597-8.859,21.063c-3.046,10.846-0.537,22.733,1.125,33.557
				c1.572,10.246,5.693,14.956,9.294,24.115c3.237,8.235,0.192,13.251-0.811,21.639c-1.201,10.047,2.487,18.529,3.965,28.334
				c1.649,10.935-1.79,15.071-6.191,24.907c-5.44,12.157-11.704,35.342,1.763,44.42c14.377,9.692,24.951,1.883,25.359,22.588
				c0.203,10.285,1.073,15.117,7.994,22.903c5.99,6.738,13.477,12.289,19.03,19.419c8.36,10.736,3.255,17.974-3.628,28.165
				c-10.079,14.923-21.115,17.205-38.014,20.926c-21.633,4.763-33.15,12.872-48.19,28.968c-5.75,6.153-9.542,11.425-12.048,19.551
				c-2.13,6.907-1.642,12.543-8.88,16.181c-15.445,7.764-30.123-7.122-31.291-21.626c-1.305-16.201,8.992-26.94-3.751-41.427
				c-2.789-3.171-12.669-12.509-17.995-10.43c-6.793,2.653-5.73,13.902-6.585,19.681c-1.38,9.333-1.828,12.657-11.337,13.882
				c-7.155,0.922-19.496-0.406-26.62-1.35c-18.266-2.421-24.407-18.024-44.804-14.989c-23.295,3.466-37.709,15.609-57.091,27.834
				c-18.251,11.512-33.548,23.017-49.328,37.841"/>
			<path style="fill:none;stroke:#514E95;stroke-width:1.5;stroke-linecap:round;stroke-linejoin:round;stroke-miterlimit:10;" d="
				M759.987,350.744c-7.235-1.809-14.068-7.874-21.01-10.875c-8.232-3.559-17.674-4.661-25.677-8.454
				c-14.914-7.069-25.564-26.616-24.593-42.848c0.903-15.096,12.033-30.333,6.394-45.688c-2.933-7.984-10.736-13.513-15.662-20.276
				c-5.844-8.022-10.001-17.03-15.434-25.306c-6.801-10.359-15.098-25.445-29.445-22.81c-6.695,1.23-12.028,6.559-18.659,8.295
				c-8.377,2.193-17.018,0.29-25.501,2.035c-12.548,2.58-28.306,15.239-37.912,2.93c-9.538-12.222-12.713-27.292-28.04-35.09
				c-7.782-3.96-14.993-3.134-23.353-3.437c-9.274-0.337-15.845-3.429-24.316-6.139c-14.512-4.642-33.821,8.59-16.37,20.882
				c12.69,8.938,25.054,0.252,32.275,17.683c2.859,6.902,2.043,13.306,8.124,18.653c6.57,5.777,17.208,7.575,25.693,7.25
				c16.9-0.648,24.328-11.704,30.686,7.665c5.508,16.779,13.907,29.532,29.003,39.108c11.581,7.346,15.373,13.93,11.912,28.216
				c-3.589,14.816-22.827,24.681-21.589,40.22c1.425,17.875,22.549,33.509,29.301,50.082c9.284,22.79,22.522,18.404,41.311,29.817
				c17.754,10.784,31.987,27.274,52.339,32.801c20.211,5.489,40.042,11.095,60.012,17.572"/>
			<path style="fill:none;stroke:#514E95;stroke-width:1.5;stroke-linecap:round;stroke-linejoin:round;stroke-miterlimit:10;" d="
				M-9.987,209.908c14.013,2.335,26.02,4.279,39.015,9.855c13.485,5.786,24.734,6.355,38.916,2.401
				c27.392-7.636,54.369-8.514,82.474-9.567c14.011-0.525,13.153,11.847,15.652,24.11c3.192,15.661,8.021,27.438,15.26,41.639
				c6.121,12.007,12.712,23.706,19.409,35.399c6.35,11.087,10.888,26.162,21.772,33.744c22.474,15.655,54.605,13.549,74.99,33.424
				c9.798,9.553,9.078,19.327,2.995,31.46c-5.185,10.342-10.348,11.106-21.196,9.257c-16.038-2.734-25.261-4.03-41.416,0.4
				c-16.886,4.631-32.335,1.08-49.291-1.435c-12.143-1.801-24.423-2.223-34.425-10.119c-10.788-8.518-15.872-22.683-25.76-32.34
				c-10.58-10.332-20.846-15.328-26.481-29.411c-4.782-11.95-7.612-22.81-22.089-24.402c-16.993-1.869-33.922,7.677-50.659,8.991
				C12,334.66,5.641,319.965-9.987,316.82"/>
			<path style="fill:none;stroke:#514E95;stroke-width:1.5;stroke-linecap:round;stroke-linejoin:round;stroke-miterlimit:10;" d="
				M542.05-5.972c8.223,13.62,16.837,27.332,15.301,44.027c-0.786,8.538-4.952,15.405-7.629,23.38
				c-2.653,7.905-2.989,15.975-5.044,23.956c-3.415,13.261-17.861,26.278-13.059,40.368c4.603,13.508,21.002,23.562,33.254,28.895
				c11.691,5.089,28.089,7.198,40.707,3.815c14.646-3.927,22.809-20.876,31.953-31.922c9.261-11.187,22.765-19.738,25.441-34.343
				c2.131-11.635,0.266-22.587,13.115-27.031c11.005-3.806,22.778-0.781,20.151,12.635c-2.73,13.942-21.606,15.571-23.356,28.918
				c-0.842,6.421,4.125,16.049,5.276,22.514c1.444,8.113,1.94,16.317,2.913,24.485c1.661,13.945,3.203,29.671,15.121,38.7
				c14.082,10.668,19.605,6.797,17.463,26.669c-1.82,16.887,3.835,31.117-1.002,47.857c-4.686,16.219-11.35,30.242,2.982,43.743
				c11.426,10.763,29.87,13.719,44.351,18.463"/>
			<path style="fill:none;stroke:#514E95;stroke-width:1.5;stroke-linecap:round;stroke-linejoin:round;stroke-miterlimit:10;" d="
				M387.336-6.486c-4.832,14.497-9.633,27.368-20.03,39.075c-9.818,11.054-25.099,12.65-39.093,15.34
				c-13.288,2.554-29.179,0.353-41.715,5.244c-12.933,5.046-20.732,21.91-34.402,24.834c-12.907,2.76-24.525-12.982-33.267-20.224
				c-14.58-12.078-27.979-6.107-45.833-7.303c-12.486-0.836-14.906-5.558-23.519,2.749c-10.321,9.954-23.208,13.627-33.559,23.011
				c-10.867,9.852-15.292,22.812-28.764,30.308c-7.849,4.368-14.801,5.406-17.405,14.873c-2.207,8.024,2.576,30.258,7.977,36.499
				c7.143,8.255,22.242,8.999,31.529,14.263c8.218,4.658,30.443,21.33,10.801,26.387c-11.168,2.876-25.973-2.823-38.073-1.113
				c-15.631,2.209-29.304-2.855-45.133-2.955c-15.441-0.098-31.455-1.633-46.839-3.098"/>
			<path style="fill:none;stroke:#514E95;stroke-width:1.5;stroke-linecap:round;stroke-linejoin:round;stroke-miterlimit:10;" d="
				M-9.987,486.44c25.066,2.571,39.68,6.418,56.505-15.021c7.907-10.075,15.273-21.61,25.078-29.977
				c7.077-6.039,15.473-9.215,21.73-16.168c-6.047-4.535-13.124-5.706-19.036-10.263c-6.361-4.903-12.253-13.202-17.008-19.707
				c-13.678-18.715,7.044-23.119,16.858-38.046c15.832-24.078-24.471-5.986-32.633,1.267c-8.162,7.253-10.509,9.051-21.139,5.523
				c-10.236-3.398-19.474-6.793-30.356-8.165"/>
			<path style="fill:none;stroke:#514E95;stroke-width:1.5;stroke-linecap:round;stroke-linejoin:round;stroke-miterlimit:10;" d="
				M759.987,489.524c-12.485,1.086-18.52,1.706-25.011-9.27c-6.033-10.2-7.581-17.342-19.524-22.104
				c-10.757-4.289-22.887-2.967-33.34-8.201c-10.942-5.479-18.089-16.707-29.473-21.457c-9.755-4.07-22.004-3.63-29.165,5.464
				c-6.622,8.409-5.014,20.444-12.096,28.953c-6.628,7.964-16.279,8.321-24.591,13.289c-10.207,6.101-16.217,20.418-23.147,29.774"
				/>
			<path style="fill:none;stroke:#514E95;stroke-width:1.5;stroke-linecap:round;stroke-linejoin:round;stroke-miterlimit:10;" d="
				M104.635-6.486c-4.127,10.334-14.967,15.712-23.664,21.56c-10.618,7.14-21.035,17.348-32.908,22.069
				c-9.984,3.97-21.082,3.101-31.296,6.412C5.639,47.162-1.339,53.228-9.473,61.362"/>
			<path style="fill:none;stroke:#514E95;stroke-width:1.5;stroke-linecap:round;stroke-linejoin:round;stroke-miterlimit:10;" d="
				M174.54-6.486c0.495,10.396-1.996,38.687,15.839,34.593c11.257-2.585,31.829-23.002,32.477-34.593"/>
			<path style="fill:none;stroke:#514E95;stroke-width:1.5;stroke-linecap:round;stroke-linejoin:round;stroke-miterlimit:10;" d="
				M289.676-6.486c5.426,5.14,10.549,8.579,16.486,12.923c6.207,4.542,10.409,11.699,17.832,14.288
				c4.783,1.668,13.508,2.246,16.83-2.631c4.432-6.506-7.258-19.033-10.541-24.067"/>
			<path style="fill:none;stroke:#514E95;stroke-width:1.5;stroke-linecap:round;stroke-linejoin:round;stroke-miterlimit:10;" d="
				M362.145,80.764c-2.644-0.047-5.244,0.323-7.883,0.567c-2.826,0.262-5.669,0.435-8.502,0.645
				c-6.396,0.474-12.799,0.851-19.183,1.471c-10.967,1.064-22.08,2.814-32.245,7.252c-4.178,1.824-8.158,4.106-11.776,6.884
				c-12.111,9.3-18.975,10.455-33.461,13.74c-14.479,3.283-19.758,10.225-34.506,3.139c-10.82-5.198-21.893-11.55-32.284-1.397
				c-7.77,7.593-11.799,24.029-17.023,33.617c-7.746,14.216-0.307,16.84,9.492,27.007c8.232,8.542,12.116,20.776,23.407,26.063
				c25.04,11.727,42.81-15.137,65.777-18.822c24.449-3.923,54.948-19.052,80.142-12.94c25.058,6.079,11.863,40.737,9.766,57.592
				c-2.105,16.925,2.493,14.004,16.458,9.331c10.588-3.543,24.505-1.048,31.375-11.527c8.057-12.291,3.674-32.849,6.265-47.059
				c2.913-15.975,3.758-26.174-7.035-39.4c-10.726-13.144-12.693-19.579-15.828-36.361c-0.76-4.072-1.939-8.288-4.524-11.61
				c-2.158-2.773-5.184-4.546-8.422-5.793c-2.844-1.095-5.691-2.124-8.759-2.344C362.978,80.788,362.561,80.771,362.145,80.764z"/>
			<path style="fill:none;stroke:#514E95;stroke-width:1.5;stroke-linecap:round;stroke-linejoin:round;stroke-miterlimit:10;" d="
				M732.745-6.486c0,9.011-1.072,18.808,1.292,27.553c2.949,10.906,4.407,10.258,0.855,21.881
				c-6.909,22.611,4.323,27.192,25.094,28.18"/>
			<path style="fill:none;stroke:#514E95;stroke-width:1.5;stroke-linecap:round;stroke-linejoin:round;stroke-miterlimit:10;" d="
				M759.987,217.104c-21.555,4.362-21.152,15.087-20.087,34.952c1.077,20.094,2.337,30.662,20.087,42.148"/>
			<path style="fill:none;stroke:#514E95;stroke-width:1.5;stroke-linecap:round;stroke-linejoin:round;stroke-miterlimit:10;" d="
				M467.52,506.486c0-12.885,0.025-28.941-17.92-21.883c-7.626,3-13.566,10.637-21.216,14.043
				c-6.143,2.736-12.013,3.951-17.919,7.326"/>
			<path style="fill:none;stroke:#514E95;stroke-width:1.5;stroke-linecap:round;stroke-linejoin:round;stroke-miterlimit:10;" d="
				M321.544,506.486c-1.059-14.367-14.238-22.697-27.173-19.027c-12.225,3.469-16.1,6.872-12.919,19.027"/>
			<path style="fill:none;stroke:#514E95;stroke-width:1.5;stroke-linecap:round;stroke-linejoin:round;stroke-miterlimit:10;" d="
				M4.544,109.168c-6.395,0.509-11.916,3.816-13.165,11.761c-0.875,5.566,0.526,11.587,0.96,17.14
				c0.868,11.094,1.846,17.776,14.626,15.273c10.805-2.116,26.428-8.853,25.718-21.326c-0.417-7.33-3.771-13.813-9.905-17.934
				C18.032,110.894,10.862,108.665,4.544,109.168z"/>
			<path style="fill:none;stroke:#514E95;stroke-width:1.5;stroke-linecap:round;stroke-linejoin:round;stroke-miterlimit:10;" d="
				M263.462,232.524c-24.447,1.482-57.841-0.18-52.456,33.622c4.005,25.141,17.872,55.345,44.23,60.967
				c11.504,2.454,23.557,5.203,30.906-6.199c6.761-10.489,5.681-27.965,3.882-39.538c-1.86-11.962-3.994-24.823-6.481-36.517
				c-2.409-11.329-8.806-11.139-19.568-12.335"/>
			<path style="fill:none;stroke:#514E95;stroke-width:1.5;stroke-linecap:round;stroke-linejoin:round;stroke-miterlimit:10;" d="
				M107.205,236.636c-14.466,2.611-29.026,18.934-30.894,33.632c-2.895,22.776,27.832,20.495,41.684,18.728
				c17.319-2.209,30.614-4.783,25.322-25.077c-5.385-20.65-15.184-27.282-35.597-27.282"/>
			<path style="fill:none;stroke:#514E95;stroke-width:1.5;stroke-linecap:round;stroke-linejoin:round;stroke-miterlimit:10;" d="
				M385.964,347.836c-9.889,1.646-18.504,8.529-22.78,17.621c-4.303,9.148,1.113,10.693,8.161,17.214
				c7.053,6.525,11.763,15.915,21.5,18.19c8.172,1.909,20.386,1.12,28.832,0.931c8.4-0.189,17.781-2.505,23.411-9.337
				c7.013-8.512,2.905-15.486-2.306-24.604c-5.38-9.413-15.573-14.076-25.685-16.601c-9.162-2.288-19.023-4.392-28.521-3.723
				C387.696,347.589,386.825,347.693,385.964,347.836z"/>
			<path style="fill:none;stroke:#514E95;stroke-width:1.5;stroke-linecap:round;stroke-linejoin:round;stroke-miterlimit:10;" d="
				M675.764,351.084c-4.305,1.134-7.637,4.718-8.818,9.058c-2.415,8.875,2.771,18.837,7.423,26.076
				c1.759,2.737,3.69,5.372,5.806,7.845c11.715,13.688,41.387,26.988,59.845,23.248c18.378-3.724,5.37-35.157-2.83-44.455
				c-4.975-5.64-12.055-8.538-19.094-10.669c-8.17-2.473-16.306-4.928-24.392-7.678c-5.225-1.777-10.662-4.37-16.326-3.728
				C676.827,350.844,676.288,350.946,675.764,351.084z"/>
		</g>
	</g>
</g>
</svg>
